<svg xmlns="http://www.w3.org/2000/svg" viewBox="0 0 1171.12 4898.51">
<g id="레이어_2" data-name="레이어 2">
<g id="레이어_1-2" data-name="레이어 1">
<path  d="M201.83,4897.28a495.74,495.74,0,0,0-42-109c-31.34-59.29-57.07-78.41-84-128,0,0-31.83-58.63-44.1-148-21.21-154.44,60.65-381.85,234.16-486.06,139.14-83.56,277.52-52.21,291.71-118,10.2-47.29-50.34-115.57-82.35-108-27.26,6.43-45.61,70.62-26.79,89,22.4,21.89,107.16-11.77,150.81-72.27,29.69-41.15,33.25-84.31,35.23-108.25,0,0,4-108.46-70.45-210-42.32-57.74-67.29-46.84-93.27-89-53.34-86.6-24.19-239.24,59.54-324,88.16-89.29,175.84-41.55,288.73-113,105.55-66.81,198.21-203.9,189.52-346-7.54-123.3-89.41-205.44-155.78-272-170.44-171-427.68-311.12-507-241-24,21.19-37.7,66.84-24.3,81.5,15.52,17,75.86,1.61,86.81-28.5,14.91-41-67-92.87-158.75-184-92.48-91.92-214.5-213.2-217.3-340-3.3-149.54,159.16-304.41,316.52-361,226.49-81.5,439-18.13,459.4-89,8.58-29.72-20.19-75.76-43.16-76.51-23.16-.76-52.62,44.09-45.15,76.51,12.4,53.78,130.79,92.06,216.31,70,158.55-40.89,278.12-298.89,210.84-471.55C1100.5,671.54,976.11,622,730.75,524.32,503.8,434,422.56,447.2,283.25,354.3c-124.4-83-199.75-165.57-244.08-259a543,543,0,0,1-34.34-94"
style="fill:none;stroke:#f5b2b9;stroke-miterlimit:10;stroke-width:10px;opacity:0.3;"/>
</g>
</g>
</svg>