<svg xmlns="http://www.w3.org/2000/svg" viewBox="0 0 1167.76 4898.66"><defs><style>.cls-1{fill:none;stroke:#f5b2b9;stroke-miterlimit:10;stroke-width:10px;opacity:0.3;}</style></defs><g id="레이어_2" data-name="레이어 2"><g id="레이어_1-2" data-name="레이어 1"><path class="cls-1" d="M201.79,4897.42a495.74,495.74,0,0,0-42-109c-31.34-59.29-57.07-78.41-84-128,0,0-31.83-58.62-44.11-148-21.2-154.44,60.66-381.84,234.17-486,139.14-83.57,277.52-52.21,291.71-118,10.2-47.3-50.34-115.57-82.35-108-27.26,6.44-45.61,70.63-26.79,89,22.4,21.89,107.16-11.76,150.81-72.27,29.69-41.15,33.25-84.3,35.23-108.25,0,0,4-108.46-70.45-210-42.32-57.74-67.29-46.84-93.27-89-53.34-86.59-24.19-239.24,59.54-324,88.16-89.29,175.84-41.56,288.73-113,105.55-66.8,198.21-203.9,189.52-346-7.54-123.31-89.41-205.45-155.78-272-170.44-171-427.68-311.12-507-241-24,21.19-37.71,66.85-24.31,81.51,15.53,17,75.87,1.61,86.82-28.5,14.91-41-67.05-92.88-158.75-184-92.48-91.92-214.5-213.2-217.3-340-3.3-149.54,159.16-304.41,316.52-361,226.49-81.5,438.94-18.13,459.4-89,8.58-29.72-20.19-75.75-43.16-76.51-23.16-.76-52.62,44.1-45.15,76.51,12.4,53.78,130.79,92.06,216.31,70,153-39.47,270.47-286.49,210.84-471.55-52.37-162.56-249.4-241.86-381.15-296.58-157.57-65.44-291.31-75.65-293-125-1-28.72,43-63.72,71-56,28.58,7.88,46.8,62,30,91-25.8,44.51-131.38,24.78-173,17-33.86-6.33-109.38-21.05-187-79-99-73.92-141.9-172-174.66-247a808.63,808.63,0,0,1-34.34-94"/></g></g></svg>